<svg height="24px" viewBox="0 0 60 57" width="24px" xmlns="http://www.w3.org/2000/svg"><g id="Page-1" fill="none" fill-rule="evenodd"><g id="034---Share-Chat" fill="rgb(0,0,0)"><path id="Path" d="m46 42c0 .5522847.4477153 1 1 1 2.7600532-.0033061 4.9966939-2.2399468 5-5 0-.5522847-.4477153-1-1-1s-1 .4477153-1 1c0 1.6568542-1.3431458 3-3 3-.5522847 0-1 .4477153-1 1z"/><path id="Path" d="m10 10c0-.55228475-.44771525-1-1-1-2.76005315.00330612-4.99669388 2.2399468-5 5 .00000001.5522847.44771526 1 1 1s.99999999-.4477153 1-1c0-1.6568542 1.34314575-3 3-3 .55228475 0 1-.4477153 1-1z"/><path id="Shape" d="m47 0c-3.9969354.00224331-7.7696659 1.84691891-10.226 5h-27.774c-4.96805005.00606096-8.99393904 4.03194995-9 9v24c.00606096 4.9680501 4.03194995 8.993939 9 9h4v8c-.0043178.7790355.4490442 1.4880499 1.158 1.811.7098783.3339132 1.5497433.2191368 2.144-.293l11.068-9.518h19.63c4.9680501-.006061 8.993939-4.0319499 9-9v-15.64c3.8302172-3.6706309 5.0423258-9.3021126 3.0614399-14.22351339-1.9808858-4.9214008-6.7563429-8.14286052-12.0614399-8.13648661zm7 38c-.0044086 3.8641657-3.1358343 6.9955914-7 7h-19.63c-.4773425-.0027197-.9393863.1682365-1.3.481l-11.07 9.519v-8c0-1.1045695-.8954305-2-2-2h-4c-3.86416566-.0044086-6.99559136-3.1358343-7-7v-24c.00440864-3.8641657 3.13583434-6.99559136 7-7h26.479c-2.7330608 5.2190214-1.6084833 11.6241633 2.7389625 15.6000306 4.3474459 3.9758672 10.8273171 4.5252177 15.7820375 1.3379694zm-7-14c-6.0751322 0-11-4.9248678-11-11 0-6.07513225 4.9248678-11 11-11s11 4.92486775 11 11c-.0071635 6.0721626-4.9278374 10.9928365-11 11z" fill-rule="nonzero"/><path id="Path" d="m8 26c0 .5522847.44771525 1 1 1h25c.5522847 0 1-.4477153 1-1s-.4477153-1-1-1h-25c-.55228475 0-1 .4477153-1 1z"/><path id="Path" d="m26 19h3c.5522847 0 1-.4477153 1-1s-.4477153-1-1-1h-3c-.5522847 0-1 .4477153-1 1s.4477153 1 1 1z"/><path id="Path" d="m20 33c-.5522847 0-1 .4477153-1 1s.4477153 1 1 1h27c.5522847 0 1-.4477153 1-1s-.4477153-1-1-1z"/><path id="Path" d="m8 18c0 .5522847.44771525 1 1 1h13c.5522847 0 1-.4477153 1-1s-.4477153-1-1-1h-13c-.55228475 0-1 .4477153-1 1z"/><path id="Path" d="m16 33h-7c-.55228475 0-1 .4477153-1 1s.44771525 1 1 1h7c.5522847 0 1-.4477153 1-1s-.4477153-1-1-1z"/><path id="Shape" d="m50.921 10.846-4.957-2.486c.0190689-.11918765.0310898-.23939647.036-.36.0072468-1.43478999-.9976365-2.67592327-2.4025323-2.9673722-1.4048959-.29144893-2.8205594.44753624-3.3846491 1.76680788s-.120317 2.85330819 1.0609969 3.66766202c1.1813139.8143539 2.7728706.6833976 3.8051845-.3130977l4.957 2.486c-.0190689.1191877-.0310898.2393965-.036.36.0049102.1206035.0169311.2408123.036.36l-4.957 2.486c-1.0268463-.9853644-2.6054236-1.1117262-3.7759427-.3022565-1.1705191.8094698-1.6094679 2.331047-1.0499616 3.6395993.5595063 1.3085522 1.9628294 2.0424171 3.3567364 1.7553983 1.3939069-.2870188 2.3931447-1.5155941 2.3901679-2.9387411-.0049102-.1206035-.0169311-.2408123-.036-.36l4.957-2.486c1.1809235 1.1448101 3.0634278 1.1253236 4.2204001-.0436869s1.1569723-3.0516157 0-4.2206262c-1.1569723-1.16901052-3.0394766-1.18849701-4.2204001-.0436869zm-7.921-1.846c-.5522847 0-1-.44771525-1-1s.4477153-1 1-1 1 .44771525 1 1-.4477153 1-1 1zm0 10c-.5522847 0-1-.4477153-1-1s.4477153-1 1-1 1 .4477153 1 1-.4477153 1-1 1zm11-6c0 .5522847-.4477153 1-1 1s-1-.4477153-1-1 .4477153-1 1-1 1 .4477153 1 1z" fill-rule="nonzero"/></g></g></svg>